<svg width="140" height="32.005" xmlns="http://www.w3.org/2000/svg" data-name="Layer 4">

 <title>logo</title>
 <g>
  <title>Layer 1</title>
  <path id="svg_1" fill="#3b58e3" d="m14.521,18.06l2.449,13.945l-15.197,0a1.776,1.776 0 0 1 -1.773,-1.778l0,-9.6l14.521,-2.567z" class="cls-1"/>
  <path id="svg_2" fill="#0092ff" d="m30.145,0a1.776,1.776 0 0 1 1.773,1.778l0,28.449a1.776,1.776 0 0 1 -1.773,1.778l-9.572,0l-5.628,-32.005l15.2,0z" class="cls-2"/>
  <path id="svg_3" fill="#f0483e" d="m11.343,0l2.557,14.559l-13.9,2.457l0,-15.238a1.776,1.776 0 0 1 1.773,-1.778l9.57,0z" class="cls-3"/>
  <text transform="matrix(0.977228, 0, 0, 1.07665, 3.34617, -3.4417)" font-style="normal" font-weight="normal" xml:space="preserve" text-anchor="start" font-family="'Harlow Solid Italic'" font-size="24" stroke-width="0" id="svg_9" y="22.86298" x="35.09303" fill="#666666">JobMatch</text>
 </g>
</svg>